<mxfile host="app.diagrams.net" modified="2024-06-18T22:57:12.176Z" agent="Mozilla/5.0 (X11; Ubuntu; Linux x86_64; rv:127.0) Gecko/20100101 Firefox/127.0" etag="3Ge6OajRPHS9PcWcJkqU" version="24.5.1" type="device">
  <diagram id="C5RBs43oDa-KdzZeNtuy" name="Page-1">
    <mxGraphModel dx="2693" dy="1703" grid="1" gridSize="10" guides="1" tooltips="1" connect="1" arrows="1" fold="1" page="1" pageScale="1" pageWidth="827" pageHeight="1169" math="0" shadow="0">
      <root>
        <mxCell id="WIyWlLk6GJQsqaUBKTNV-0" />
        <mxCell id="WIyWlLk6GJQsqaUBKTNV-1" parent="WIyWlLk6GJQsqaUBKTNV-0" />
        <mxCell id="lLx7cMU7yUEwxr8ydkFh-0" value="ICell" style="swimlane;fontStyle=2;align=center;verticalAlign=top;childLayout=stackLayout;horizontal=1;startSize=26;horizontalStack=0;resizeParent=1;resizeLast=0;collapsible=1;marginBottom=0;rounded=0;shadow=0;strokeWidth=1;" parent="WIyWlLk6GJQsqaUBKTNV-1" vertex="1">
          <mxGeometry x="40" y="30" width="160" height="90" as="geometry">
            <mxRectangle x="220" y="120" width="160" height="26" as="alternateBounds" />
          </mxGeometry>
        </mxCell>
        <mxCell id="lLx7cMU7yUEwxr8ydkFh-4" value="" style="line;html=1;strokeWidth=1;align=left;verticalAlign=middle;spacingTop=-1;spacingLeft=3;spacingRight=3;rotatable=0;labelPosition=right;points=[];portConstraint=eastwest;" parent="lLx7cMU7yUEwxr8ydkFh-0" vertex="1">
          <mxGeometry y="26" width="160" height="8" as="geometry" />
        </mxCell>
        <mxCell id="lLx7cMU7yUEwxr8ydkFh-5" value="bool IsAlive()&#xa;bool equals()&#xa;String toString()&#xa;&#xa;&#xa;" style="text;align=left;verticalAlign=top;spacingLeft=4;spacingRight=4;overflow=hidden;rotatable=0;points=[[0,0.5],[1,0.5]];portConstraint=eastwest;" parent="lLx7cMU7yUEwxr8ydkFh-0" vertex="1">
          <mxGeometry y="34" width="160" height="46" as="geometry" />
        </mxCell>
        <mxCell id="lLx7cMU7yUEwxr8ydkFh-17" style="edgeStyle=block;rounded=0;jettySize=auto;html=1;entryX=0.5;entryY=1;entryDx=0;entryDy=0;dashed=1;endFill=0;endArrow=block;" parent="WIyWlLk6GJQsqaUBKTNV-1" source="lLx7cMU7yUEwxr8ydkFh-14" target="lLx7cMU7yUEwxr8ydkFh-0" edge="1">
          <mxGeometry relative="1" as="geometry" />
        </mxCell>
        <mxCell id="lLx7cMU7yUEwxr8ydkFh-14" value="Cell" style="swimlane;fontStyle=2;align=center;verticalAlign=top;childLayout=stackLayout;horizontal=1;startSize=26;horizontalStack=0;resizeParent=1;resizeLast=0;collapsible=1;marginBottom=0;rounded=0;shadow=0;strokeWidth=1;movable=1;resizable=1;rotatable=1;deletable=1;editable=1;locked=0;connectable=1;" parent="WIyWlLk6GJQsqaUBKTNV-1" vertex="1">
          <mxGeometry x="-90" y="140" width="160" height="80" as="geometry">
            <mxRectangle x="220" y="120" width="160" height="26" as="alternateBounds" />
          </mxGeometry>
        </mxCell>
        <mxCell id="lLx7cMU7yUEwxr8ydkFh-21" value="CellType state;" style="text;html=1;align=left;verticalAlign=middle;resizable=1;points=[];autosize=1;strokeColor=none;fillColor=none;movable=1;rotatable=1;deletable=1;editable=1;locked=0;connectable=1;" parent="lLx7cMU7yUEwxr8ydkFh-14" vertex="1">
          <mxGeometry y="26" width="160" height="30" as="geometry" />
        </mxCell>
        <mxCell id="lLx7cMU7yUEwxr8ydkFh-15" value="" style="line;html=1;strokeWidth=1;align=left;verticalAlign=middle;spacingTop=-1;spacingLeft=3;spacingRight=3;rotatable=1;labelPosition=right;points=[];portConstraint=eastwest;movable=1;resizable=1;deletable=1;editable=1;locked=0;connectable=1;" parent="lLx7cMU7yUEwxr8ydkFh-14" vertex="1">
          <mxGeometry y="56" width="160" height="14" as="geometry" />
        </mxCell>
        <mxCell id="lLx7cMU7yUEwxr8ydkFh-16" value="&#xa;&#xa;&#xa;" style="text;align=left;verticalAlign=top;spacingLeft=4;spacingRight=4;overflow=hidden;rotatable=1;points=[[0,0.5],[1,0.5]];portConstraint=eastwest;movable=1;resizable=1;deletable=1;editable=1;locked=0;connectable=1;" parent="lLx7cMU7yUEwxr8ydkFh-14" vertex="1">
          <mxGeometry y="70" width="160" as="geometry" />
        </mxCell>
        <mxCell id="lLx7cMU7yUEwxr8ydkFh-23" value="&lt;div&gt;&amp;lt;&amp;lt;enum&amp;gt;&amp;gt;&lt;/div&gt;&lt;div&gt;CellType&lt;/div&gt;" style="swimlane;whiteSpace=wrap;html=1;startSize=30;" parent="WIyWlLk6GJQsqaUBKTNV-1" vertex="1">
          <mxGeometry x="230" y="-40" width="120" height="70" as="geometry" />
        </mxCell>
        <mxCell id="lLx7cMU7yUEwxr8ydkFh-25" value="&lt;div&gt;ALIVE&lt;/div&gt;&lt;div&gt;DEAD&lt;br&gt;&lt;/div&gt;" style="text;html=1;align=center;verticalAlign=middle;resizable=0;points=[];autosize=1;strokeColor=none;fillColor=none;" parent="lLx7cMU7yUEwxr8ydkFh-23" vertex="1">
          <mxGeometry y="30" width="60" height="40" as="geometry" />
        </mxCell>
        <mxCell id="lLx7cMU7yUEwxr8ydkFh-35" value="IBoard" style="swimlane;fontStyle=2;align=center;verticalAlign=top;childLayout=stackLayout;horizontal=1;startSize=26;horizontalStack=0;resizeParent=1;resizeLast=0;collapsible=1;marginBottom=0;rounded=0;shadow=0;strokeWidth=1;" parent="WIyWlLk6GJQsqaUBKTNV-1" vertex="1">
          <mxGeometry x="260" y="310" width="220" height="170" as="geometry">
            <mxRectangle x="220" y="120" width="160" height="26" as="alternateBounds" />
          </mxGeometry>
        </mxCell>
        <mxCell id="lLx7cMU7yUEwxr8ydkFh-36" value="" style="line;html=1;strokeWidth=1;align=left;verticalAlign=middle;spacingTop=-1;spacingLeft=3;spacingRight=3;rotatable=0;labelPosition=right;points=[];portConstraint=eastwest;" parent="lLx7cMU7yUEwxr8ydkFh-35" vertex="1">
          <mxGeometry y="26" width="220" height="8" as="geometry" />
        </mxCell>
        <mxCell id="lLx7cMU7yUEwxr8ydkFh-37" value="ICell getCell(int row, int col);&#xa;void setCell(int row, int col, ICell cell);&#xa;IBoard nextGeneration();&#xa;boolean isValidPos(int row, int col);&#xa;Map&lt;CellType, Integer&gt;Â &#xa;countNeighboursTypes(int row, int col);&#xa;boolean equals(Object o);&#xa;String toString();&#xa;&#xa;&#xa;" style="text;align=left;verticalAlign=top;spacingLeft=4;spacingRight=4;overflow=hidden;rotatable=0;points=[[0,0.5],[1,0.5]];portConstraint=eastwest;" parent="lLx7cMU7yUEwxr8ydkFh-35" vertex="1">
          <mxGeometry y="34" width="220" height="136" as="geometry" />
        </mxCell>
        <mxCell id="lLx7cMU7yUEwxr8ydkFh-43" value="Board" style="swimlane;fontStyle=2;align=center;verticalAlign=top;childLayout=stackLayout;horizontal=1;startSize=26;horizontalStack=0;resizeParent=1;resizeLast=0;collapsible=1;marginBottom=0;rounded=0;shadow=0;strokeWidth=1;" parent="WIyWlLk6GJQsqaUBKTNV-1" vertex="1">
          <mxGeometry x="260" y="560" width="220" height="110" as="geometry">
            <mxRectangle x="220" y="120" width="160" height="26" as="alternateBounds" />
          </mxGeometry>
        </mxCell>
        <mxCell id="lLx7cMU7yUEwxr8ydkFh-55" value="&lt;div&gt;int[][] classicCells; &lt;/div&gt;&lt;div&gt;List&amp;lt;Rule&amp;gt; classicRules;&lt;/div&gt;&lt;div&gt;int rows;&lt;/div&gt;&lt;div&gt;int cols; &lt;br&gt;&lt;/div&gt;" style="align=left;rounded=0;whiteSpace=wrap;html=1;" parent="lLx7cMU7yUEwxr8ydkFh-43" vertex="1">
          <mxGeometry y="26" width="220" height="60" as="geometry" />
        </mxCell>
        <mxCell id="lLx7cMU7yUEwxr8ydkFh-48" style="edgeStyle=orthogonalEdgeStyle;rounded=0;orthogonalLoop=1;jettySize=auto;html=1;exitX=0.5;exitY=0;exitDx=0;exitDy=0;dashed=1;entryX=0.5;entryY=1;entryDx=0;entryDy=0;endArrow=block;endFill=0;" parent="WIyWlLk6GJQsqaUBKTNV-1" source="lLx7cMU7yUEwxr8ydkFh-43" target="lLx7cMU7yUEwxr8ydkFh-35" edge="1">
          <mxGeometry relative="1" as="geometry">
            <mxPoint x="370" y="450" as="targetPoint" />
          </mxGeometry>
        </mxCell>
        <mxCell id="lLx7cMU7yUEwxr8ydkFh-49" style="edgeStyle=orthogonalEdgeStyle;rounded=0;orthogonalLoop=1;jettySize=auto;html=1;exitX=0;exitY=0.5;exitDx=0;exitDy=0;entryX=0.75;entryY=1;entryDx=0;entryDy=0;" parent="WIyWlLk6GJQsqaUBKTNV-1" source="lLx7cMU7yUEwxr8ydkFh-50" target="lLx7cMU7yUEwxr8ydkFh-0" edge="1">
          <mxGeometry relative="1" as="geometry">
            <mxPoint x="190" y="240" as="targetPoint" />
            <Array as="points">
              <mxPoint x="160" y="350" />
            </Array>
          </mxGeometry>
        </mxCell>
        <mxCell id="lLx7cMU7yUEwxr8ydkFh-50" value="" style="rhombus;whiteSpace=wrap;html=1;" parent="WIyWlLk6GJQsqaUBKTNV-1" vertex="1">
          <mxGeometry x="240" y="340" width="20" height="20" as="geometry" />
        </mxCell>
        <mxCell id="lLx7cMU7yUEwxr8ydkFh-63" value="Rule" style="swimlane;fontStyle=2;align=center;verticalAlign=top;childLayout=stackLayout;horizontal=1;startSize=26;horizontalStack=0;resizeParent=1;resizeLast=0;collapsible=1;marginBottom=0;rounded=0;shadow=0;strokeWidth=1;" parent="WIyWlLk6GJQsqaUBKTNV-1" vertex="1">
          <mxGeometry x="550" y="30" width="250" height="80" as="geometry">
            <mxRectangle x="220" y="120" width="160" height="26" as="alternateBounds" />
          </mxGeometry>
        </mxCell>
        <mxCell id="lLx7cMU7yUEwxr8ydkFh-64" value="" style="line;html=1;strokeWidth=1;align=left;verticalAlign=middle;spacingTop=-1;spacingLeft=3;spacingRight=3;rotatable=0;labelPosition=right;points=[];portConstraint=eastwest;" parent="lLx7cMU7yUEwxr8ydkFh-63" vertex="1">
          <mxGeometry y="26" width="250" height="8" as="geometry" />
        </mxCell>
        <mxCell id="lLx7cMU7yUEwxr8ydkFh-65" value="bool applicable(ICell classicCell, int neighbours)&#xa;ICell execute() &#xa;&#xa;&#xa;" style="text;align=left;verticalAlign=top;spacingLeft=4;spacingRight=4;overflow=hidden;rotatable=0;points=[[0,0.5],[1,0.5]];portConstraint=eastwest;" parent="lLx7cMU7yUEwxr8ydkFh-63" vertex="1">
          <mxGeometry y="34" width="250" height="46" as="geometry" />
        </mxCell>
        <mxCell id="lLx7cMU7yUEwxr8ydkFh-84" style="edgeStyle=orthogonalEdgeStyle;rounded=0;orthogonalLoop=1;jettySize=auto;html=1;exitX=0.591;exitY=0.171;exitDx=0;exitDy=0;entryX=0.25;entryY=1;entryDx=0;entryDy=0;endArrow=block;endFill=0;dashed=1;exitPerimeter=0;" parent="WIyWlLk6GJQsqaUBKTNV-1" source="qWE5WLH66g36mcjTmo8e-43" target="lLx7cMU7yUEwxr8ydkFh-63" edge="1">
          <mxGeometry relative="1" as="geometry">
            <mxPoint x="590" y="140" as="sourcePoint" />
          </mxGeometry>
        </mxCell>
        <mxCell id="lLx7cMU7yUEwxr8ydkFh-90" style="edgeStyle=orthogonalEdgeStyle;rounded=0;orthogonalLoop=1;jettySize=auto;html=1;exitX=0;exitY=0;exitDx=20;exitDy=0;dashed=1;strokeColor=default;align=center;verticalAlign=middle;fontFamily=Helvetica;fontSize=11;fontColor=default;labelBackgroundColor=default;endArrow=block;endFill=0;entryX=0.624;entryY=1.065;entryDx=0;entryDy=0;entryPerimeter=0;exitPerimeter=0;" parent="WIyWlLk6GJQsqaUBKTNV-1" source="qWE5WLH66g36mcjTmo8e-40" target="lLx7cMU7yUEwxr8ydkFh-65" edge="1">
          <mxGeometry relative="1" as="geometry">
            <mxPoint x="680" y="110" as="targetPoint" />
            <Array as="points">
              <mxPoint x="760" y="290" />
              <mxPoint x="760" y="200" />
              <mxPoint x="706" y="200" />
            </Array>
            <mxPoint x="707.5" y="320" as="sourcePoint" />
          </mxGeometry>
        </mxCell>
        <mxCell id="lLx7cMU7yUEwxr8ydkFh-89" style="edgeStyle=orthogonalEdgeStyle;rounded=0;orthogonalLoop=1;jettySize=auto;html=1;exitX=0;exitY=0;exitDx=75;exitDy=14;entryX=0.44;entryY=1.022;entryDx=0;entryDy=0;entryPerimeter=0;endArrow=block;endFill=0;dashed=1;exitPerimeter=0;" parent="WIyWlLk6GJQsqaUBKTNV-1" source="qWE5WLH66g36mcjTmo8e-42" target="lLx7cMU7yUEwxr8ydkFh-65" edge="1">
          <mxGeometry relative="1" as="geometry">
            <mxPoint x="660" y="227" as="sourcePoint" />
            <Array as="points">
              <mxPoint x="595" y="270" />
              <mxPoint x="640" y="270" />
              <mxPoint x="640" y="111" />
            </Array>
          </mxGeometry>
        </mxCell>
        <mxCell id="lLx7cMU7yUEwxr8ydkFh-91" style="edgeStyle=orthogonalEdgeStyle;rounded=0;orthogonalLoop=1;jettySize=auto;html=1;exitX=0;exitY=0;exitDx=75;exitDy=14;dashed=1;strokeColor=default;align=center;verticalAlign=middle;fontFamily=Helvetica;fontSize=11;fontColor=default;labelBackgroundColor=default;endArrow=block;endFill=0;exitPerimeter=0;" parent="WIyWlLk6GJQsqaUBKTNV-1" source="qWE5WLH66g36mcjTmo8e-39" edge="1">
          <mxGeometry relative="1" as="geometry">
            <Array as="points">
              <mxPoint x="865" y="140" />
              <mxPoint x="750" y="140" />
              <mxPoint x="750" y="111" />
            </Array>
            <mxPoint x="750" y="111" as="targetPoint" />
          </mxGeometry>
        </mxCell>
        <mxCell id="lLx7cMU7yUEwxr8ydkFh-94" style="edgeStyle=orthogonalEdgeStyle;rounded=0;orthogonalLoop=1;jettySize=auto;html=1;entryX=1;entryY=0.5;entryDx=0;entryDy=0;strokeColor=default;align=center;verticalAlign=middle;fontFamily=Helvetica;fontSize=11;fontColor=default;labelBackgroundColor=default;endArrow=classic;endFill=1;" parent="WIyWlLk6GJQsqaUBKTNV-1" edge="1" target="lLx7cMU7yUEwxr8ydkFh-5">
          <mxGeometry relative="1" as="geometry">
            <mxPoint x="549.04" y="70" as="sourcePoint" />
            <mxPoint x="200.04" y="191" as="targetPoint" />
            <Array as="points">
              <mxPoint x="549" y="87" />
            </Array>
          </mxGeometry>
        </mxCell>
        <mxCell id="lLx7cMU7yUEwxr8ydkFh-95" value="GameController" style="swimlane;fontStyle=2;align=center;verticalAlign=top;childLayout=stackLayout;horizontal=1;startSize=26;horizontalStack=0;resizeParent=1;resizeLast=0;collapsible=1;marginBottom=0;rounded=0;shadow=0;strokeWidth=1;" parent="WIyWlLk6GJQsqaUBKTNV-1" vertex="1">
          <mxGeometry x="-20" y="490" width="220" height="130" as="geometry">
            <mxRectangle x="220" y="120" width="160" height="26" as="alternateBounds" />
          </mxGeometry>
        </mxCell>
        <mxCell id="lLx7cMU7yUEwxr8ydkFh-96" value="" style="align=left;rounded=0;whiteSpace=wrap;html=1;" parent="lLx7cMU7yUEwxr8ydkFh-95" vertex="1">
          <mxGeometry y="26" width="220" height="24" as="geometry" />
        </mxCell>
        <mxCell id="1YJ9kRqiKq9mvI1619Ub-12" value="&lt;div&gt;void reproduce()&lt;/div&gt;&lt;div&gt;void addObserver()&lt;/div&gt;&lt;div&gt;void notifyObserver()&lt;br&gt;&lt;/div&gt;" style="whiteSpace=wrap;html=1;align=left;" parent="lLx7cMU7yUEwxr8ydkFh-95" vertex="1">
          <mxGeometry y="50" width="220" height="80" as="geometry" />
        </mxCell>
        <mxCell id="lLx7cMU7yUEwxr8ydkFh-98" style="edgeStyle=orthogonalEdgeStyle;rounded=0;orthogonalLoop=1;jettySize=auto;html=1;strokeColor=default;align=center;verticalAlign=middle;fontFamily=Helvetica;fontSize=11;fontColor=default;labelBackgroundColor=default;endArrow=classic;endFill=1;entryX=0.003;entryY=0.733;entryDx=0;entryDy=0;entryPerimeter=0;" parent="WIyWlLk6GJQsqaUBKTNV-1" edge="1" target="lLx7cMU7yUEwxr8ydkFh-37">
          <mxGeometry relative="1" as="geometry">
            <Array as="points">
              <mxPoint x="200" y="525" />
              <mxPoint x="220" y="525" />
              <mxPoint x="220" y="444" />
            </Array>
            <mxPoint x="200" y="550" as="sourcePoint" />
            <mxPoint x="260" y="360" as="targetPoint" />
          </mxGeometry>
        </mxCell>
        <mxCell id="1YJ9kRqiKq9mvI1619Ub-16" style="edgeStyle=orthogonalEdgeStyle;rounded=0;orthogonalLoop=1;jettySize=auto;html=1;exitX=0.5;exitY=0;exitDx=0;exitDy=0;entryX=0.5;entryY=1;entryDx=0;entryDy=0;dashed=1;endArrow=block;endFill=0;" parent="WIyWlLk6GJQsqaUBKTNV-1" source="1YJ9kRqiKq9mvI1619Ub-0" target="1YJ9kRqiKq9mvI1619Ub-4" edge="1">
          <mxGeometry relative="1" as="geometry">
            <Array as="points">
              <mxPoint x="-430" y="400" />
              <mxPoint x="-500" y="400" />
            </Array>
          </mxGeometry>
        </mxCell>
        <mxCell id="1YJ9kRqiKq9mvI1619Ub-0" value="ConsoleOutput" style="swimlane;fontStyle=2;align=center;verticalAlign=top;childLayout=stackLayout;horizontal=1;startSize=30;horizontalStack=0;resizeParent=1;resizeLast=0;collapsible=1;marginBottom=0;rounded=0;shadow=0;strokeWidth=1;movable=1;resizable=1;rotatable=1;deletable=1;editable=1;locked=0;connectable=1;" parent="WIyWlLk6GJQsqaUBKTNV-1" vertex="1">
          <mxGeometry x="-510" y="430" width="160" height="84" as="geometry">
            <mxRectangle x="220" y="120" width="160" height="26" as="alternateBounds" />
          </mxGeometry>
        </mxCell>
        <mxCell id="1YJ9kRqiKq9mvI1619Ub-3" value="void update(IBoard board)&#xa;&#xa;" style="text;align=left;verticalAlign=top;spacingLeft=4;spacingRight=4;overflow=hidden;rotatable=1;points=[[0,0.5],[1,0.5]];portConstraint=eastwest;movable=1;resizable=1;deletable=1;editable=1;locked=0;connectable=1;" parent="1YJ9kRqiKq9mvI1619Ub-0" vertex="1">
          <mxGeometry y="30" width="160" height="40" as="geometry" />
        </mxCell>
        <mxCell id="1YJ9kRqiKq9mvI1619Ub-4" value="GameDisplay" style="swimlane;fontStyle=2;align=center;verticalAlign=top;childLayout=stackLayout;horizontal=1;startSize=26;horizontalStack=0;resizeParent=1;resizeLast=0;collapsible=1;marginBottom=0;rounded=0;shadow=0;strokeWidth=1;" parent="WIyWlLk6GJQsqaUBKTNV-1" vertex="1">
          <mxGeometry x="-580" y="250" width="160" height="80" as="geometry">
            <mxRectangle x="220" y="120" width="160" height="26" as="alternateBounds" />
          </mxGeometry>
        </mxCell>
        <mxCell id="1YJ9kRqiKq9mvI1619Ub-5" value="" style="line;html=1;strokeWidth=1;align=left;verticalAlign=middle;spacingTop=-1;spacingLeft=3;spacingRight=3;rotatable=0;labelPosition=right;points=[];portConstraint=eastwest;" parent="1YJ9kRqiKq9mvI1619Ub-4" vertex="1">
          <mxGeometry y="26" width="160" height="8" as="geometry" />
        </mxCell>
        <mxCell id="1YJ9kRqiKq9mvI1619Ub-6" value="update(IBoard classicBoard)" style="text;align=left;verticalAlign=top;spacingLeft=4;spacingRight=4;overflow=hidden;rotatable=0;points=[[0,0.5],[1,0.5]];portConstraint=eastwest;" parent="1YJ9kRqiKq9mvI1619Ub-4" vertex="1">
          <mxGeometry y="34" width="160" height="46" as="geometry" />
        </mxCell>
        <mxCell id="1YJ9kRqiKq9mvI1619Ub-7" style="edgeStyle=orthogonalEdgeStyle;rounded=0;orthogonalLoop=1;jettySize=auto;html=1;entryX=1;entryY=0.5;entryDx=0;entryDy=0;exitX=0;exitY=0.5;exitDx=0;exitDy=0;" parent="WIyWlLk6GJQsqaUBKTNV-1" source="1YJ9kRqiKq9mvI1619Ub-10" target="1YJ9kRqiKq9mvI1619Ub-6" edge="1">
          <mxGeometry relative="1" as="geometry">
            <Array as="points">
              <mxPoint x="-330" y="530" />
              <mxPoint x="-330" y="307" />
            </Array>
          </mxGeometry>
        </mxCell>
        <mxCell id="1YJ9kRqiKq9mvI1619Ub-10" value="" style="rhombus;whiteSpace=wrap;html=1;" parent="WIyWlLk6GJQsqaUBKTNV-1" vertex="1">
          <mxGeometry x="-40" y="520" width="20" height="20" as="geometry" />
        </mxCell>
        <mxCell id="2i8A7G2kChsEibu_RJ6y-0" value="CellFactory" style="swimlane;fontStyle=2;align=center;verticalAlign=top;childLayout=stackLayout;horizontal=1;startSize=26;horizontalStack=0;resizeParent=1;resizeLast=0;collapsible=1;marginBottom=0;rounded=0;shadow=0;strokeWidth=1;" parent="WIyWlLk6GJQsqaUBKTNV-1" vertex="1">
          <mxGeometry y="-90" width="160" height="90" as="geometry">
            <mxRectangle x="220" y="120" width="160" height="26" as="alternateBounds" />
          </mxGeometry>
        </mxCell>
        <mxCell id="2i8A7G2kChsEibu_RJ6y-1" value="" style="line;html=1;strokeWidth=1;align=left;verticalAlign=middle;spacingTop=-1;spacingLeft=3;spacingRight=3;rotatable=0;labelPosition=right;points=[];portConstraint=eastwest;" parent="2i8A7G2kChsEibu_RJ6y-0" vertex="1">
          <mxGeometry y="26" width="160" height="8" as="geometry" />
        </mxCell>
        <mxCell id="2i8A7G2kChsEibu_RJ6y-2" value="ICell factory(char cellType)" style="text;align=left;verticalAlign=top;spacingLeft=4;spacingRight=4;overflow=hidden;rotatable=0;points=[[0,0.5],[1,0.5]];portConstraint=eastwest;" parent="2i8A7G2kChsEibu_RJ6y-0" vertex="1">
          <mxGeometry y="34" width="160" height="46" as="geometry" />
        </mxCell>
        <mxCell id="2i8A7G2kChsEibu_RJ6y-3" style="edgeStyle=orthogonalEdgeStyle;rounded=0;orthogonalLoop=1;jettySize=auto;html=1;entryX=0;entryY=0.5;entryDx=0;entryDy=0;" parent="WIyWlLk6GJQsqaUBKTNV-1" source="2i8A7G2kChsEibu_RJ6y-2" target="lLx7cMU7yUEwxr8ydkFh-5" edge="1">
          <mxGeometry relative="1" as="geometry">
            <Array as="points">
              <mxPoint x="180" y="-33" />
              <mxPoint x="180" y="20" />
              <mxPoint x="20" y="20" />
              <mxPoint x="20" y="87" />
            </Array>
          </mxGeometry>
        </mxCell>
        <mxCell id="2i8A7G2kChsEibu_RJ6y-8" style="edgeStyle=orthogonalEdgeStyle;rounded=0;orthogonalLoop=1;jettySize=auto;html=1;exitX=0.5;exitY=1;exitDx=0;exitDy=0;entryX=0.5;entryY=0;entryDx=0;entryDy=0;" parent="WIyWlLk6GJQsqaUBKTNV-1" source="2i8A7G2kChsEibu_RJ6y-4" target="lLx7cMU7yUEwxr8ydkFh-35" edge="1">
          <mxGeometry relative="1" as="geometry" />
        </mxCell>
        <mxCell id="2i8A7G2kChsEibu_RJ6y-4" value="BoardFactory" style="swimlane;fontStyle=2;align=center;verticalAlign=top;childLayout=stackLayout;horizontal=1;startSize=26;horizontalStack=0;resizeParent=1;resizeLast=0;collapsible=1;marginBottom=0;rounded=0;shadow=0;strokeWidth=1;" parent="WIyWlLk6GJQsqaUBKTNV-1" vertex="1">
          <mxGeometry x="260" y="190" width="220" height="80" as="geometry">
            <mxRectangle x="220" y="120" width="160" height="26" as="alternateBounds" />
          </mxGeometry>
        </mxCell>
        <mxCell id="2i8A7G2kChsEibu_RJ6y-5" value="" style="line;html=1;strokeWidth=1;align=left;verticalAlign=middle;spacingTop=-1;spacingLeft=3;spacingRight=3;rotatable=0;labelPosition=right;points=[];portConstraint=eastwest;" parent="2i8A7G2kChsEibu_RJ6y-4" vertex="1">
          <mxGeometry y="26" width="220" height="8" as="geometry" />
        </mxCell>
        <mxCell id="2i8A7G2kChsEibu_RJ6y-6" value="IBoard factory(int rows, int cols, String&#xa;classicBoard, List&lt;Rule&gt; classicRules)&#xa;&#xa;" style="text;align=left;verticalAlign=top;spacingLeft=4;spacingRight=4;overflow=hidden;rotatable=0;points=[[0,0.5],[1,0.5]];portConstraint=eastwest;" parent="2i8A7G2kChsEibu_RJ6y-4" vertex="1">
          <mxGeometry y="34" width="220" height="46" as="geometry" />
        </mxCell>
        <mxCell id="2i8A7G2kChsEibu_RJ6y-9" value="RulesFactory" style="swimlane;fontStyle=2;align=center;verticalAlign=top;childLayout=stackLayout;horizontal=1;startSize=26;horizontalStack=0;resizeParent=1;resizeLast=0;collapsible=1;marginBottom=0;rounded=0;shadow=0;strokeWidth=1;" parent="WIyWlLk6GJQsqaUBKTNV-1" vertex="1">
          <mxGeometry x="-290" y="-190" width="250" height="80" as="geometry">
            <mxRectangle x="220" y="120" width="160" height="26" as="alternateBounds" />
          </mxGeometry>
        </mxCell>
        <mxCell id="2i8A7G2kChsEibu_RJ6y-10" value="" style="line;html=1;strokeWidth=1;align=left;verticalAlign=middle;spacingTop=-1;spacingLeft=3;spacingRight=3;rotatable=0;labelPosition=right;points=[];portConstraint=eastwest;" parent="2i8A7G2kChsEibu_RJ6y-9" vertex="1">
          <mxGeometry y="26" width="250" height="8" as="geometry" />
        </mxCell>
        <mxCell id="2i8A7G2kChsEibu_RJ6y-11" value="List&lt;Rule&gt; factory(String classicRules)" style="text;align=left;verticalAlign=top;spacingLeft=4;spacingRight=4;overflow=hidden;rotatable=0;points=[[0,0.5],[1,0.5]];portConstraint=eastwest;" parent="2i8A7G2kChsEibu_RJ6y-9" vertex="1">
          <mxGeometry y="34" width="250" height="46" as="geometry" />
        </mxCell>
        <mxCell id="2i8A7G2kChsEibu_RJ6y-12" style="edgeStyle=orthogonalEdgeStyle;rounded=0;orthogonalLoop=1;jettySize=auto;html=1;entryX=0.5;entryY=0;entryDx=0;entryDy=0;" parent="WIyWlLk6GJQsqaUBKTNV-1" source="2i8A7G2kChsEibu_RJ6y-11" target="lLx7cMU7yUEwxr8ydkFh-63" edge="1">
          <mxGeometry relative="1" as="geometry" />
        </mxCell>
        <mxCell id="qWE5WLH66g36mcjTmo8e-10" style="edgeStyle=orthogonalEdgeStyle;rounded=0;orthogonalLoop=1;jettySize=auto;html=1;entryX=0.25;entryY=1;entryDx=0;entryDy=0;endArrow=block;endFill=0;dashed=1;" edge="1" parent="WIyWlLk6GJQsqaUBKTNV-1" source="qWE5WLH66g36mcjTmo8e-4" target="1YJ9kRqiKq9mvI1619Ub-12">
          <mxGeometry relative="1" as="geometry" />
        </mxCell>
        <mxCell id="qWE5WLH66g36mcjTmo8e-4" value="ContinuousMode" style="swimlane;fontStyle=2;align=center;verticalAlign=top;childLayout=stackLayout;horizontal=1;startSize=26;horizontalStack=0;resizeParent=1;resizeLast=0;collapsible=1;marginBottom=0;rounded=0;shadow=0;strokeWidth=1;" vertex="1" parent="WIyWlLk6GJQsqaUBKTNV-1">
          <mxGeometry x="-160" y="658" width="170" height="102" as="geometry">
            <mxRectangle x="220" y="120" width="160" height="26" as="alternateBounds" />
          </mxGeometry>
        </mxCell>
        <mxCell id="qWE5WLH66g36mcjTmo8e-5" value="Board board;&lt;br&gt;List&amp;lt;GameDisplay&amp;gt; displays;&lt;br&gt;float sleepTime;" style="align=left;rounded=0;whiteSpace=wrap;html=1;" vertex="1" parent="qWE5WLH66g36mcjTmo8e-4">
          <mxGeometry y="26" width="170" height="64" as="geometry" />
        </mxCell>
        <mxCell id="qWE5WLH66g36mcjTmo8e-6" value="" style="whiteSpace=wrap;html=1;align=left;" vertex="1" parent="qWE5WLH66g36mcjTmo8e-4">
          <mxGeometry y="90" width="170" height="10" as="geometry" />
        </mxCell>
        <mxCell id="qWE5WLH66g36mcjTmo8e-15" style="edgeStyle=orthogonalEdgeStyle;rounded=0;orthogonalLoop=1;jettySize=auto;html=1;endArrow=block;endFill=0;dashed=1;" edge="1" parent="WIyWlLk6GJQsqaUBKTNV-1" source="qWE5WLH66g36mcjTmo8e-11" target="1YJ9kRqiKq9mvI1619Ub-12">
          <mxGeometry relative="1" as="geometry" />
        </mxCell>
        <mxCell id="qWE5WLH66g36mcjTmo8e-11" value="SimulationMode" style="swimlane;fontStyle=2;align=center;verticalAlign=top;childLayout=stackLayout;horizontal=1;startSize=26;horizontalStack=0;resizeParent=1;resizeLast=0;collapsible=1;marginBottom=0;rounded=0;shadow=0;strokeWidth=1;" vertex="1" parent="WIyWlLk6GJQsqaUBKTNV-1">
          <mxGeometry x="100" y="670" width="170" height="100" as="geometry">
            <mxRectangle x="220" y="120" width="160" height="26" as="alternateBounds" />
          </mxGeometry>
        </mxCell>
        <mxCell id="qWE5WLH66g36mcjTmo8e-12" value="Board board;&lt;br&gt;List&amp;lt;GameDisplay&amp;gt; displays;" style="align=left;rounded=0;whiteSpace=wrap;html=1;" vertex="1" parent="qWE5WLH66g36mcjTmo8e-11">
          <mxGeometry y="26" width="170" height="64" as="geometry" />
        </mxCell>
        <mxCell id="qWE5WLH66g36mcjTmo8e-16" value="LimitedGenerationsMode" style="swimlane;fontStyle=2;align=center;verticalAlign=top;childLayout=stackLayout;horizontal=1;startSize=26;horizontalStack=0;resizeParent=1;resizeLast=0;collapsible=1;marginBottom=0;rounded=0;shadow=0;strokeWidth=1;" vertex="1" parent="WIyWlLk6GJQsqaUBKTNV-1">
          <mxGeometry x="-40" y="810" width="170" height="100" as="geometry">
            <mxRectangle x="220" y="120" width="160" height="26" as="alternateBounds" />
          </mxGeometry>
        </mxCell>
        <mxCell id="qWE5WLH66g36mcjTmo8e-17" value="Board board;&lt;br&gt;&lt;div&gt;List&amp;lt;GameDisplay&amp;gt; displays;&lt;/div&gt;&lt;div&gt;int generations; &lt;br&gt;&lt;/div&gt;" style="align=left;rounded=0;whiteSpace=wrap;html=1;" vertex="1" parent="qWE5WLH66g36mcjTmo8e-16">
          <mxGeometry y="26" width="170" height="64" as="geometry" />
        </mxCell>
        <mxCell id="qWE5WLH66g36mcjTmo8e-18" value="" style="whiteSpace=wrap;html=1;align=left;" vertex="1" parent="qWE5WLH66g36mcjTmo8e-16">
          <mxGeometry y="90" width="170" height="10" as="geometry" />
        </mxCell>
        <mxCell id="qWE5WLH66g36mcjTmo8e-19" style="edgeStyle=orthogonalEdgeStyle;rounded=0;orthogonalLoop=1;jettySize=auto;html=1;entryX=0.35;entryY=1;entryDx=0;entryDy=0;entryPerimeter=0;endArrow=block;endFill=0;dashed=1;" edge="1" parent="WIyWlLk6GJQsqaUBKTNV-1" source="qWE5WLH66g36mcjTmo8e-16" target="1YJ9kRqiKq9mvI1619Ub-12">
          <mxGeometry relative="1" as="geometry" />
        </mxCell>
        <mxCell id="qWE5WLH66g36mcjTmo8e-20" value="FileOutput" style="swimlane;fontStyle=2;align=center;verticalAlign=top;childLayout=stackLayout;horizontal=1;startSize=30;horizontalStack=0;resizeParent=1;resizeLast=0;collapsible=1;marginBottom=0;rounded=0;shadow=0;strokeWidth=1;movable=1;resizable=1;rotatable=1;deletable=1;editable=1;locked=0;connectable=1;" vertex="1" parent="WIyWlLk6GJQsqaUBKTNV-1">
          <mxGeometry x="-700" y="430" width="160" height="84" as="geometry">
            <mxRectangle x="220" y="120" width="160" height="26" as="alternateBounds" />
          </mxGeometry>
        </mxCell>
        <mxCell id="qWE5WLH66g36mcjTmo8e-21" value="void update(IBoard board)&#xa;&#xa;" style="text;align=left;verticalAlign=top;spacingLeft=4;spacingRight=4;overflow=hidden;rotatable=1;points=[[0,0.5],[1,0.5]];portConstraint=eastwest;movable=1;resizable=1;deletable=1;editable=1;locked=0;connectable=1;" vertex="1" parent="qWE5WLH66g36mcjTmo8e-20">
          <mxGeometry y="30" width="160" height="40" as="geometry" />
        </mxCell>
        <mxCell id="qWE5WLH66g36mcjTmo8e-22" style="edgeStyle=orthogonalEdgeStyle;rounded=0;orthogonalLoop=1;jettySize=auto;html=1;entryX=0.231;entryY=0.978;entryDx=0;entryDy=0;entryPerimeter=0;endArrow=block;endFill=0;dashed=1;" edge="1" parent="WIyWlLk6GJQsqaUBKTNV-1" source="qWE5WLH66g36mcjTmo8e-20" target="1YJ9kRqiKq9mvI1619Ub-6">
          <mxGeometry relative="1" as="geometry" />
        </mxCell>
        <mxCell id="qWE5WLH66g36mcjTmo8e-24" value="DisplayFactory" style="swimlane;fontStyle=2;align=center;verticalAlign=top;childLayout=stackLayout;horizontal=1;startSize=26;horizontalStack=0;resizeParent=1;resizeLast=0;collapsible=1;marginBottom=0;rounded=0;shadow=0;strokeWidth=1;" vertex="1" parent="WIyWlLk6GJQsqaUBKTNV-1">
          <mxGeometry x="-830" y="140" width="270" height="90" as="geometry">
            <mxRectangle x="220" y="120" width="160" height="26" as="alternateBounds" />
          </mxGeometry>
        </mxCell>
        <mxCell id="qWE5WLH66g36mcjTmo8e-25" value="" style="line;html=1;strokeWidth=1;align=left;verticalAlign=middle;spacingTop=-1;spacingLeft=3;spacingRight=3;rotatable=0;labelPosition=right;points=[];portConstraint=eastwest;" vertex="1" parent="qWE5WLH66g36mcjTmo8e-24">
          <mxGeometry y="26" width="270" height="8" as="geometry" />
        </mxCell>
        <mxCell id="qWE5WLH66g36mcjTmo8e-26" value="List&lt;GameDisplay&gt; factory(String displayType)&#xa;String getFolderName(String displayType)&#xa;boolean isFileDisplay(String displayType)&#xa;" style="text;align=left;verticalAlign=top;spacingLeft=4;spacingRight=4;overflow=hidden;rotatable=0;points=[[0,0.5],[1,0.5]];portConstraint=eastwest;" vertex="1" parent="qWE5WLH66g36mcjTmo8e-24">
          <mxGeometry y="34" width="270" height="56" as="geometry" />
        </mxCell>
        <mxCell id="qWE5WLH66g36mcjTmo8e-28" style="edgeStyle=orthogonalEdgeStyle;rounded=0;orthogonalLoop=1;jettySize=auto;html=1;entryX=0.5;entryY=0;entryDx=0;entryDy=0;" edge="1" parent="WIyWlLk6GJQsqaUBKTNV-1" source="qWE5WLH66g36mcjTmo8e-26" target="1YJ9kRqiKq9mvI1619Ub-4">
          <mxGeometry relative="1" as="geometry" />
        </mxCell>
        <mxCell id="qWE5WLH66g36mcjTmo8e-33" style="edgeStyle=orthogonalEdgeStyle;rounded=0;orthogonalLoop=1;jettySize=auto;html=1;entryX=0;entryY=0.5;entryDx=0;entryDy=0;" edge="1" parent="WIyWlLk6GJQsqaUBKTNV-1" source="qWE5WLH66g36mcjTmo8e-29" target="2i8A7G2kChsEibu_RJ6y-2">
          <mxGeometry relative="1" as="geometry" />
        </mxCell>
        <mxCell id="qWE5WLH66g36mcjTmo8e-29" value="GameCreator" style="swimlane;fontStyle=2;align=center;verticalAlign=top;childLayout=stackLayout;horizontal=1;startSize=26;horizontalStack=0;resizeParent=1;resizeLast=0;collapsible=1;marginBottom=0;rounded=0;shadow=0;strokeWidth=1;" vertex="1" parent="WIyWlLk6GJQsqaUBKTNV-1">
          <mxGeometry x="-280" y="307" width="350" height="80" as="geometry">
            <mxRectangle x="220" y="120" width="160" height="26" as="alternateBounds" />
          </mxGeometry>
        </mxCell>
        <mxCell id="qWE5WLH66g36mcjTmo8e-30" value="" style="line;html=1;strokeWidth=1;align=left;verticalAlign=middle;spacingTop=-1;spacingLeft=3;spacingRight=3;rotatable=0;labelPosition=right;points=[];portConstraint=eastwest;" vertex="1" parent="qWE5WLH66g36mcjTmo8e-29">
          <mxGeometry y="26" width="350" height="8" as="geometry" />
        </mxCell>
        <mxCell id="qWE5WLH66g36mcjTmo8e-31" value="GameController getGame(String variant, String playbackMode,Â &#xa;String displays, int rows, int cols, String initialBoardPositions)" style="text;align=left;verticalAlign=top;spacingLeft=4;spacingRight=4;overflow=hidden;rotatable=0;points=[[0,0.5],[1,0.5]];portConstraint=eastwest;" vertex="1" parent="qWE5WLH66g36mcjTmo8e-29">
          <mxGeometry y="34" width="350" height="46" as="geometry" />
        </mxCell>
        <mxCell id="qWE5WLH66g36mcjTmo8e-34" style="edgeStyle=orthogonalEdgeStyle;rounded=0;orthogonalLoop=1;jettySize=auto;html=1;exitX=0.25;exitY=0;exitDx=0;exitDy=0;entryX=0.28;entryY=1;entryDx=0;entryDy=0;entryPerimeter=0;" edge="1" parent="WIyWlLk6GJQsqaUBKTNV-1" source="qWE5WLH66g36mcjTmo8e-29" target="2i8A7G2kChsEibu_RJ6y-11">
          <mxGeometry relative="1" as="geometry" />
        </mxCell>
        <mxCell id="qWE5WLH66g36mcjTmo8e-35" style="edgeStyle=orthogonalEdgeStyle;rounded=0;orthogonalLoop=1;jettySize=auto;html=1;entryX=0;entryY=0.25;entryDx=0;entryDy=0;" edge="1" parent="WIyWlLk6GJQsqaUBKTNV-1" source="qWE5WLH66g36mcjTmo8e-31" target="2i8A7G2kChsEibu_RJ6y-4">
          <mxGeometry relative="1" as="geometry">
            <Array as="points">
              <mxPoint x="200" y="364" />
              <mxPoint x="200" y="210" />
            </Array>
          </mxGeometry>
        </mxCell>
        <mxCell id="qWE5WLH66g36mcjTmo8e-39" value="BBRules" style="shape=folder;fontStyle=1;spacingTop=10;tabWidth=40;tabHeight=14;tabPosition=left;html=1;whiteSpace=wrap;" vertex="1" parent="WIyWlLk6GJQsqaUBKTNV-1">
          <mxGeometry x="780" y="195" width="110" height="70" as="geometry" />
        </mxCell>
        <mxCell id="qWE5WLH66g36mcjTmo8e-40" value="ClassicRules" style="shape=folder;fontStyle=1;spacingTop=10;tabWidth=40;tabHeight=14;tabPosition=left;html=1;whiteSpace=wrap;" vertex="1" parent="WIyWlLk6GJQsqaUBKTNV-1">
          <mxGeometry x="770" y="290" width="110" height="70" as="geometry" />
        </mxCell>
        <mxCell id="qWE5WLH66g36mcjTmo8e-41" value="ImmigrationRules" style="shape=folder;fontStyle=1;spacingTop=10;tabWidth=40;tabHeight=14;tabPosition=left;html=1;whiteSpace=wrap;" vertex="1" parent="WIyWlLk6GJQsqaUBKTNV-1">
          <mxGeometry x="640" y="290" width="110" height="70" as="geometry" />
        </mxCell>
        <mxCell id="qWE5WLH66g36mcjTmo8e-42" value="QuadLifeRules" style="shape=folder;fontStyle=1;spacingTop=10;tabWidth=40;tabHeight=14;tabPosition=left;html=1;whiteSpace=wrap;" vertex="1" parent="WIyWlLk6GJQsqaUBKTNV-1">
          <mxGeometry x="520" y="290" width="110" height="70" as="geometry" />
        </mxCell>
        <mxCell id="qWE5WLH66g36mcjTmo8e-43" value="Starwars rules" style="shape=folder;fontStyle=1;spacingTop=10;tabWidth=40;tabHeight=14;tabPosition=left;html=1;whiteSpace=wrap;" vertex="1" parent="WIyWlLk6GJQsqaUBKTNV-1">
          <mxGeometry x="510" y="195" width="110" height="70" as="geometry" />
        </mxCell>
        <mxCell id="qWE5WLH66g36mcjTmo8e-46" style="edgeStyle=orthogonalEdgeStyle;rounded=0;orthogonalLoop=1;jettySize=auto;html=1;exitX=0;exitY=0;exitDx=75;exitDy=14;dashed=1;strokeColor=default;align=center;verticalAlign=middle;fontFamily=Helvetica;fontSize=11;fontColor=default;labelBackgroundColor=default;endArrow=block;endFill=0;exitPerimeter=0;entryX=0.524;entryY=1.022;entryDx=0;entryDy=0;entryPerimeter=0;" edge="1" parent="WIyWlLk6GJQsqaUBKTNV-1" source="qWE5WLH66g36mcjTmo8e-41" target="lLx7cMU7yUEwxr8ydkFh-65">
          <mxGeometry relative="1" as="geometry">
            <Array as="points">
              <mxPoint x="680" y="304" />
              <mxPoint x="680" y="150" />
              <mxPoint x="681" y="150" />
            </Array>
            <mxPoint x="865" y="219" as="sourcePoint" />
            <mxPoint x="760" y="121" as="targetPoint" />
          </mxGeometry>
        </mxCell>
        <mxCell id="qWE5WLH66g36mcjTmo8e-48" value="Main" style="swimlane;fontStyle=2;align=center;verticalAlign=top;childLayout=stackLayout;horizontal=1;startSize=26;horizontalStack=0;resizeParent=1;resizeLast=0;collapsible=1;marginBottom=0;rounded=0;shadow=0;strokeWidth=1;" vertex="1" parent="WIyWlLk6GJQsqaUBKTNV-1">
          <mxGeometry x="-630" y="-10" width="350" height="130" as="geometry">
            <mxRectangle x="220" y="120" width="160" height="26" as="alternateBounds" />
          </mxGeometry>
        </mxCell>
        <mxCell id="qWE5WLH66g36mcjTmo8e-49" value="" style="line;html=1;strokeWidth=1;align=left;verticalAlign=middle;spacingTop=-1;spacingLeft=3;spacingRight=3;rotatable=0;labelPosition=right;points=[];portConstraint=eastwest;" vertex="1" parent="qWE5WLH66g36mcjTmo8e-48">
          <mxGeometry y="26" width="350" height="8" as="geometry" />
        </mxCell>
        <mxCell id="qWE5WLH66g36mcjTmo8e-50" value="void main(String[] args);&#xa;GameController createGameFromFile(String filename)&#xa;List&lt;GameDisplay&gt; getDisplaysFromFile(String filename)&#xa;Properties loadPropertiesFile(String configFileName)&#xa;String getProperty(Properties properties, String key)&#xa;" style="text;align=left;verticalAlign=top;spacingLeft=4;spacingRight=4;overflow=hidden;rotatable=0;points=[[0,0.5],[1,0.5]];portConstraint=eastwest;" vertex="1" parent="qWE5WLH66g36mcjTmo8e-48">
          <mxGeometry y="34" width="350" height="96" as="geometry" />
        </mxCell>
        <mxCell id="qWE5WLH66g36mcjTmo8e-51" style="edgeStyle=orthogonalEdgeStyle;rounded=0;orthogonalLoop=1;jettySize=auto;html=1;entryX=0.563;entryY=0.011;entryDx=0;entryDy=0;entryPerimeter=0;" edge="1" parent="WIyWlLk6GJQsqaUBKTNV-1" source="qWE5WLH66g36mcjTmo8e-50" target="qWE5WLH66g36mcjTmo8e-24">
          <mxGeometry relative="1" as="geometry" />
        </mxCell>
        <mxCell id="qWE5WLH66g36mcjTmo8e-52" style="edgeStyle=orthogonalEdgeStyle;rounded=0;orthogonalLoop=1;jettySize=auto;html=1;entryX=0.071;entryY=-0.025;entryDx=0;entryDy=0;entryPerimeter=0;" edge="1" parent="WIyWlLk6GJQsqaUBKTNV-1" source="qWE5WLH66g36mcjTmo8e-50" target="qWE5WLH66g36mcjTmo8e-29">
          <mxGeometry relative="1" as="geometry" />
        </mxCell>
      </root>
    </mxGraphModel>
  </diagram>
</mxfile>
